<?xml version="1.0" encoding="UTF-8"?>
<svg xmlns="http://www.w3.org/2000/svg" xmlns:xlink="http://www.w3.org/1999/xlink" width="1280px" height="720px" viewBox="0 0 599 720" version="1.1">
<g id="surface1">
<path style=" stroke:none;fill-rule:nonzero;fill:rgb(0%,0%,0%);fill-opacity:1;" d="M 8.488281 159.453125 L 8.488281 363.46875 L 304.351562 471.546875 L 599 363.46875 L 599 159.453125 L 304.351562 267.535156 Z M 8.488281 159.453125 "/>
<path style=" stroke:none;fill-rule:nonzero;fill:rgb(0%,0%,0%);fill-opacity:1;" d="M 8.488281 407.878906 L 8.488281 611.898438 L 304.351562 719.976562 L 599 611.898438 L 599 407.878906 L 304.351562 515.960938 Z M 264.941406 30.382812 L 291.921875 30.382812 L 311.019531 105.675781 L 330.417969 30.382812 L 357.09375 30.382812 L 329.511719 138.460938 L 292.832031 138.460938 Z M 417.722656 30.382812 L 366.496094 30.382812 L 366.496094 138.460938 L 394.078125 138.460938 L 394.078125 74.101562 C 394.078125 59.832031 403.175781 59.527344 417.722656 59.527344 Z M 559.59375 59.527344 C 568.6875 59.527344 571.71875 62.5625 571.71875 72.886719 L 571.71875 138.460938 L 599 138.460938 L 599 59.527344 C 599 47.992188 592.9375 29.167969 570.503906 30.382812 L 519.273438 30.382812 L 519.273438 138.460938 L 546.558594 138.460938 L 546.558594 59.527344 Z M 464.40625 30.382812 C 419.945312 30.382812 424.390625 57.402344 424.390625 82.90625 C 424.390625 111.445312 420.753906 138.464844 465.011719 138.464844 C 509.269531 138.464844 504.417969 111.445312 504.417969 82.300781 C 504.421875 53.761719 509.878906 30.382812 464.40625 30.382812 Z M 464.40625 110.53125 C 451.976562 110.53125 451.371094 101.121094 451.371094 83.511719 C 451.371094 66.511719 452.886719 58.011719 464.40625 58.011719 C 475.925781 58.011719 476.859375 65.90625 477.136719 82.90625 C 477.441406 101.425781 477.136719 110.53125 464.40625 110.53125 Z M 212.195312 95.050781 L 260.835938 95.050781 C 260.792969 91.738281 260.699219 89.375 260.699219 86.246094 C 260.699219 57.707031 264.941406 30.382812 223.109375 30.382812 C 178.652344 30.382812 183.097656 60.742188 183.097656 86.246094 C 183.097656 109.320312 182.488281 138.464844 226.75 138.464844 L 260.699219 138.464844 L 260.699219 111.746094 L 224.929688 111.746094 C 218.257812 111.785156 212.804688 105.375 212.195312 95.050781 Z M 212.195312 65.597656 C 212.195312 52.847656 231.597656 53.457031 231.597656 63.777344 L 231.597656 71.367188 L 212.195312 71.367188 Z M 90.03125 0.0234375 L 90.03125 138.460938 L 117.3125 138.460938 L 117.3125 71.066406 C 117.921875 55.886719 143.6875 55.886719 143.6875 70.457031 L 143.6875 138.464844 L 170.96875 138.464844 L 170.96875 62.261719 C 170.96875 44.652344 159.449219 31.898438 138.835938 31.898438 C 126.710938 31.898438 119.132812 33.417969 117.316406 35.847656 L 117.316406 0.0234375 Z M 76.996094 0.0234375 L 46.078125 0.0234375 C 6.667969 0.0234375 0 32.8125 0 69.847656 C 0 106.886719 6.667969 138.460938 40.015625 138.460938 L 76.996094 138.460938 L 76.996094 109.316406 L 50.320312 109.316406 C 30.921875 109.316406 32.132812 82.601562 32.132812 69.242188 C 32.132812 55.882812 28.492188 30.988281 55.171875 30.382812 L 76.996094 30.382812 Z M 76.996094 0.0234375 "/>
</g>
</svg>
