<?xml version="1.0" encoding="UTF-8"?>
<svg xmlns="http://www.w3.org/2000/svg" xmlns:xlink="http://www.w3.org/1999/xlink" width="1280px" height="720px" viewBox="0 0 4986 720" version="1.1">
<g id="surface1">
<path style=" stroke:none;fill-rule:nonzero;fill:rgb(0%,0%,0%);fill-opacity:1;" d="M 0 15.054688 L 952.335938 15.054688 L 952.335938 694.382812 L 0 694.382812 Z M 0 15.054688 "/>
<path style=" stroke:none;fill-rule:nonzero;fill:rgb(0%,68.235296%,93.725491%);fill-opacity:1;" d="M 0 232.707031 L 0 583.257812 L 154.402344 582.308594 L 154.402344 495.746094 L 334.164062 495.746094 L 334.164062 408.058594 L 154.402344 408.058594 L 154.402344 319.269531 L 333.097656 319.269531 L 333.097656 232.707031 Z M 335.324219 321.496094 L 592.808594 321.496094 L 644.925781 444.664062 L 695.980469 322.59375 L 949.011719 321.496094 L 951.238281 582.308594 L 773.667969 582.308594 L 773.667969 583.40625 L 773.667969 410.28125 L 700.429688 582.308594 L 586.101562 582.308594 L 515.085938 406.988281 L 335.324219 406.988281 Z M 335.324219 321.496094 "/>
<path style=" stroke:none;fill-rule:nonzero;fill:rgb(0%,68.235296%,93.725491%);fill-opacity:1;" d="M 335.324219 496.84375 L 335.324219 582.28125 L 516.183594 582.28125 L 516.183594 495.746094 Z M 335.324219 496.84375 "/>
<path style=" stroke:none;fill-rule:nonzero;fill:rgb(0%,0%,0%);fill-opacity:1;" d="M 1996.039062 537.722656 C 1996.039062 570.382812 1976.101562 569.136719 1976.101562 569.136719 L 1957.472656 569.136719 L 1957.472656 509.273438 L 1980.046875 509.273438 C 1999.984375 514.792969 1996.007812 537.722656 1996.007812 537.722656 M 2025.257812 467.296875 L 1876.136719 467.296875 L 1876.136719 689.875 L 1957.472656 689.875 L 1957.472656 612.835938 L 2015.40625 612.835938 C 2082.300781 601.621094 2074.707031 537.484375 2074.707031 537.484375 C 2077.820312 472.519531 2025.285156 467.296875 2025.285156 467.296875 M 3833.3125 526.6875 L 3833.3125 632.355469 C 3834.144531 649.796875 3818.242188 652.320312 3818.242188 652.320312 L 3794.335938 652.320312 L 3794.335938 509.691406 L 3823.554688 509.273438 C 3835.0625 514.375 3833.3125 526.6875 3833.3125 526.6875 M 3849.6875 467.652344 L 3713.738281 467.652344 L 3713.738281 689.25 L 3850.546875 689.25 C 3908.984375 683.320312 3912.574219 622.207031 3912.574219 622.207031 C 3916.105469 582.308594 3912.574219 543.65625 3912.574219 543.65625 C 3914.769531 474.476562 3849.6875 467.683594 3849.6875 467.683594 M 3599.976562 467.238281 L 3518.875 467.238281 L 3518.875 689.667969 L 3682.261719 689.667969 L 3682.261719 643.835938 L 3599.914062 643.835938 Z M 3398.910156 640.898438 C 3398.910156 640.898438 3398.023438 656.175781 3381.171875 652.765625 C 3381.171875 652.765625 3365.242188 655.285156 3363.464844 640.421875 L 3363.464844 516.929688 C 3363.464844 516.929688 3362.128906 502.480469 3380.28125 504.617188 C 3380.28125 504.617188 3399.832031 500.375 3398.972656 517.3125 Z M 3464.914062 491.386719 C 3443.199219 462.136719 3381.203125 465.132812 3381.203125 465.132812 C 3320.09375 466.410156 3305.945312 483.820312 3305.945312 483.820312 C 3276.664062 502.480469 3280.730469 579.34375 3280.730469 579.34375 C 3277.171875 645.140625 3298.378906 663 3298.378906 663 C 3323.179688 696.519531 3382.09375 691 3382.09375 691 C 3452.011719 700.347656 3472.390625 651.960938 3472.390625 651.960938 C 3483.871094 626.066406 3482.59375 573.824219 3482.59375 573.824219 C 3481.703125 499.070312 3464.914062 491.414062 3464.914062 491.414062 M 3119.921875 613.28125 L 3137.628906 613.28125 L 3137.628906 629.832031 C 3134.070312 651.042969 3109.273438 645.96875 3109.273438 645.96875 C 3091.148438 647.691406 3086.757812 628.140625 3086.757812 628.140625 L 3086.757812 486.34375 C 3091.148438 464.746094 3113.335938 468.960938 3113.335938 468.960938 C 3139.410156 465.933594 3138.550781 487.234375 3138.550781 487.234375 L 3138.550781 511.410156 L 3241.304688 511.410156 C 3243.53125 441.339844 3183.3125 427.753906 3183.3125 427.753906 C 3119.535156 408.652344 3056.648438 422.238281 3056.648438 422.238281 C 2975.574219 438.820312 2984.890625 522.503906 2984.890625 522.503906 C 2980.46875 573.824219 2984.890625 602.6875 2984.890625 602.6875 C 2986.226562 654.898438 3019.894531 678.1875 3019.894531 678.1875 C 3046.441406 699.484375 3089.871094 696.042969 3089.871094 696.042969 C 3113.75 696.042969 3126.148438 691.804688 3126.148438 691.804688 C 3160.324219 675.664062 3171.328125 679.136719 3171.328125 679.136719 C 3193.457031 676.109375 3198.351562 689.695312 3198.351562 689.695312 L 3241.75 689.695312 L 3241.75 558.546875 L 3120.425781 558.546875 Z M 2747.933594 651.933594 C 2747.933594 651.933594 2742.59375 658.726562 2729.363281 658.726562 L 2712.960938 658.726562 C 2712.960938 658.726562 2700.558594 654.871094 2699.253906 642.558594 L 2699.253906 622.148438 C 2699.253906 622.148438 2700.054688 610.726562 2709.84375 610.726562 C 2709.84375 610.726562 2713.847656 602.183594 2747.875 640.394531 Z M 2718.714844 500.34375 C 2718.714844 500.34375 2740.429688 499.929688 2740.429688 516.957031 C 2740.429688 516.957031 2745.707031 532.621094 2722.242188 541.933594 L 2716.964844 541.933594 C 2716.964844 541.933594 2697.445312 532.144531 2698.78125 518.203125 C 2698.78125 518.203125 2696.613281 499.515625 2718.714844 500.375 M 2827.226562 625.144531 L 2857.78125 582.695312 L 2795.394531 582.28125 L 2790.945312 590.347656 L 2784.300781 590.347656 L 2762.648438 572.933594 L 2762.648438 565.253906 C 2762.648438 565.253906 2810.878906 541.519531 2806.90625 506.664062 C 2806.90625 506.664062 2806.90625 462.550781 2723.191406 462.105469 C 2723.191406 462.105469 2643.425781 455.285156 2631.472656 506.25 C 2631.472656 506.25 2623.96875 528.320312 2664.308594 562.699219 L 2664.308594 569.464844 C 2664.308594 569.464844 2619.605469 591.59375 2619.605469 631.910156 C 2619.605469 631.910156 2612.933594 690.46875 2693.527344 695.984375 C 2693.527344 695.984375 2740.488281 704.945312 2782.078125 682.8125 L 2793.554688 682.8125 L 2800.203125 689.222656 L 2886.96875 689.222656 L 2827.226562 632.265625 Z M 2431.773438 528.378906 C 2431.773438 556.410156 2417.148438 552.167969 2417.148438 552.167969 L 2395.910156 552.167969 L 2395.910156 502.925781 L 2417.59375 502.925781 C 2434.859375 502.925781 2431.773438 528.378906 2431.773438 528.378906 M 2468.972656 577.175781 L 2468.972656 568.722656 C 2468.972656 568.722656 2511.480469 560.652344 2512.816406 526.242188 L 2512.816406 508.828125 C 2512.816406 508.828125 2511.035156 471.925781 2466.300781 467.238281 C 2466.300781 467.238281 2460.132812 465.164062 2314.421875 465.164062 L 2314.421875 689.726562 L 2395.492188 689.726562 L 2395.492188 594.203125 L 2417.625 594.203125 C 2417.625 594.203125 2431.804688 595.007812 2431.804688 607.761719 L 2431.804688 689.28125 L 2513.230469 689.28125 L 2513.230469 610.757812 C 2513.230469 610.757812 2505.28125 579.3125 2468.972656 577.175781 M 2110.246094 689.695312 L 2271.914062 689.695312 L 2271.914062 643.417969 L 2189.953125 643.417969 L 2189.953125 598.445312 L 2267.433594 598.445312 L 2267.433594 556.855469 L 2189.953125 556.855469 L 2189.953125 513.546875 L 2271.914062 513.546875 L 2271.914062 467.269531 L 2110.71875 467.269531 Z M 1756.886719 541.132812 C 1756.886719 578.898438 1720.546875 569.136719 1720.546875 569.136719 L 1720.546875 508.414062 C 1765.28125 500.789062 1756.886719 541.132812 1756.886719 541.132812 M 1787.441406 468.128906 L 1636.894531 467.269531 L 1636.894531 689.695312 L 1718.320312 689.695312 L 1718.320312 613.28125 L 1778.09375 613.28125 C 1778.09375 613.28125 1826.804688 609.039062 1834.339844 556.382812 C 1834.339844 556.382812 1837.898438 528.792969 1832.558594 507.554688 C 1832.589844 507.554688 1829.027344 474.890625 1787.410156 468.097656 M 1515.09375 637.902344 C 1515.09375 637.902344 1514.648438 650.65625 1505.363281 651.933594 L 1488.988281 652.347656 C 1488.988281 652.347656 1479.257812 651.074219 1479.257812 643.003906 L 1479.257812 517.816406 C 1479.257812 517.816406 1479.257812 507.199219 1488.988281 505.0625 L 1505.363281 504.644531 C 1505.363281 504.644531 1515.09375 505.449219 1515.09375 521.554688 Z M 1571.75 482.933594 C 1545.171875 458.726562 1468.136719 466.410156 1468.136719 466.410156 C 1397.296875 471.511719 1395.960938 538.136719 1395.960938 538.136719 C 1393.765625 573.765625 1396.4375 614.96875 1396.4375 614.96875 C 1400.382812 654.871094 1417.675781 668.425781 1417.675781 668.425781 C 1435.355469 686.253906 1460.601562 689.667969 1460.601562 689.667969 C 1472.554688 693.046875 1527.046875 690.941406 1527.046875 690.941406 C 1553.152344 686.730469 1568.636719 676.109375 1568.636719 676.109375 C 1591.6875 656.175781 1595.214844 628.113281 1595.214844 628.113281 L 1595.660156 535.972656 C 1595.246094 497.40625 1571.78125 482.933594 1571.78125 482.933594 M 1267.992188 415 C 1267.992188 415 1199.824219 412.476562 1189.617188 418.441406 C 1189.617188 418.441406 1123.203125 425.648438 1115.222656 490.613281 C 1115.222656 490.613281 1113.027344 585.691406 1115.695312 623.070312 C 1115.695312 623.070312 1120.5625 688.867188 1215.78125 693.078125 C 1215.78125 693.078125 1287.066406 700.316406 1330.878906 669.730469 C 1330.878906 669.730469 1361.433594 648.964844 1359.652344 601.414062 L 1258.292969 601.414062 L 1258.292969 628.140625 C 1258.292969 628.140625 1257.402344 642.171875 1237.082031 642.171875 C 1237.082031 642.171875 1213.144531 642.972656 1213.144531 628.585938 L 1213.144531 480.378906 C 1213.144531 480.378906 1215.8125 461.691406 1233.9375 464.214844 C 1233.9375 464.214844 1256.097656 460 1258.738281 478.660156 L 1258.292969 507.109375 L 1359.683594 507.109375 C 1359.683594 507.109375 1370.332031 423.066406 1268.019531 415 M 4601.640625 234.160156 L 4617.957031 147.539062 L 4621.488281 147.539062 L 4641.007812 234.160156 Z M 4564.445312 93.636719 L 4506.359375 316.097656 L 4583.902344 316.097656 L 4592.328125 275.75 L 4649.875 275.75 L 4659.636719 316.097656 L 4738.453125 316.097656 L 4680.015625 93.636719 Z M 4380.230469 102.121094 L 4380.230469 131.847656 C 4380.230469 150.121094 4363.378906 148.816406 4363.378906 148.816406 L 4337.660156 148.816406 L 4337.660156 84.738281 L 4363.765625 84.738281 C 4381.058594 88.148438 4380.230469 102.152344 4380.230469 102.152344 M 4431.101562 176.433594 L 4428.433594 174.355469 L 4428.433594 167.535156 L 4429.796875 165.398438 C 4494.882812 154.808594 4484.230469 97.910156 4484.230469 97.910156 C 4484.230469 41.042969 4420.929688 36.355469 4420.929688 36.355469 L 4234.042969 36.355469 L 4234.042969 316.097656 L 4337.691406 316.097656 L 4337.691406 199.394531 L 4365.128906 199.394531 C 4382.839844 199.394531 4382.453125 219.359375 4382.453125 219.359375 L 4382.453125 316.15625 L 4486.070312 316.15625 L 4486.070312 226.121094 C 4480.730469 176.433594 4431.101562 176.433594 4431.101562 176.433594 M 4120.28125 266.882812 C 4120.28125 266.882812 4120.726562 279.191406 4103.433594 279.191406 C 4103.433594 279.191406 4082.195312 281.742188 4082.640625 267.328125 L 4083.46875 151.425781 C 4083.46875 151.425781 4082.640625 131.429688 4094.535156 131.429688 L 4110.9375 131.429688 C 4110.9375 131.429688 4120.222656 133.984375 4120.222656 147.152344 Z M 4181.804688 114.046875 C 4152.585938 88.148438 4100.792969 91.117188 4100.792969 91.117188 C 4074.660156 91.117188 4051.640625 96.632812 4051.640625 96.632812 C 4025.0625 104.703125 4014.441406 124.222656 4014.441406 124.222656 C 4006.015625 132.320312 4001.597656 167.535156 4001.597656 167.535156 L 4001.597656 240.984375 C 4006.492188 286.402344 4029.035156 300.015625 4029.035156 300.015625 C 4049.859375 319.921875 4102.097656 319.507812 4102.097656 319.507812 C 4148.167969 319.507812 4168.960938 305.503906 4168.960938 305.503906 C 4199.574219 288.507812 4202.628906 241.816406 4202.628906 241.816406 L 4202.628906 178.984375 C 4201.742188 130.15625 4181.804688 114.019531 4181.804688 114.019531 M 3802.285156 177.324219 L 3793.386719 177.324219 L 3762.859375 36.382812 L 3625.128906 36.382812 L 3625.128906 316.570312 L 3715.488281 316.570312 L 3711.925781 151.011719 L 3713.261719 148.875 L 3716.316406 149.289062 L 3720.351562 151.457031 L 3764.195312 316.15625 L 3831.058594 316.15625 L 3873.953125 149.734375 L 3876.175781 148.460938 L 3880.183594 148.460938 L 3882.378906 149.734375 L 3880.183594 316.15625 L 3970.035156 316.15625 L 3970.035156 36.800781 L 3831.890625 36.800781 Z M 3464.914062 317.429688 L 3523.738281 317.429688 C 3523.738281 317.429688 3595.496094 315.710938 3595.082031 246.53125 L 3516.707031 246.53125 L 3516.707031 267.328125 C 3516.707031 267.328125 3518.011719 279.191406 3496.359375 279.191406 C 3496.359375 279.191406 3478.175781 281.328125 3478.175781 269.433594 L 3478.175781 146.738281 C 3478.175781 146.738281 3479.507812 135.289062 3496.773438 135.289062 C 3496.773438 135.289062 3516.707031 133.152344 3516.707031 151.425781 L 3517.152344 171.359375 L 3595.523438 171.359375 C 3595.523438 171.359375 3603.535156 100.015625 3515.816406 97.910156 L 3468.445312 98.355469 C 3465.714844 98.355469 3401.96875 106.808594 3401.96875 157.328125 C 3401.96875 157.328125 3398.40625 202.777344 3401.136719 260.917969 C 3401.136719 260.917969 3403.332031 308.085938 3464.914062 317.402344 M 3370.109375 316.125 L 3370.109375 36.355469 L 3230.183594 36.355469 L 3201.40625 178.984375 L 3193.398438 178.984375 L 3162.429688 36.355469 L 3025.144531 36.355469 L 3025.144531 316.097656 L 3114.167969 316.097656 L 3111.496094 155.609375 L 3114.167969 148.84375 L 3119.921875 155.222656 L 3162.875 315.265625 L 3232.40625 315.265625 L 3272.691406 152.699219 L 3279.304688 147.570312 L 3282.035156 153.085938 L 3280.195312 316.125 Z M 2706.34375 139.914062 L 2706.34375 316.125 L 2787.773438 316.125 L 2787.773438 139.914062 L 2847.160156 139.914062 L 2847.160156 93.699219 L 2648.765625 93.699219 L 2649.179688 139.976562 Z M 2542.003906 147.570312 L 2542.003906 161.570312 C 2542.003906 181.566406 2525.214844 181.148438 2525.214844 181.148438 L 2506.585938 181.148438 L 2506.585938 129.296875 L 2526.460938 128.878906 C 2543.371094 128.878906 2542.035156 147.539062 2542.035156 147.539062 M 2623.523438 315.652344 L 2623.523438 240.984375 L 2622.632812 238.433594 C 2615.097656 201.5 2579.203125 204.023438 2579.203125 204.023438 L 2579.203125 195.121094 C 2625.273438 187.082031 2622.214844 156.5 2622.214844 156.5 L 2622.214844 132.320312 C 2619.546875 96.632812 2581.875 93.667969 2581.875 93.667969 L 2422.875 93.667969 L 2422.875 316.125 L 2506.585938 316.125 L 2506.585938 220.605469 L 2528.300781 220.605469 C 2541.085938 220.605469 2542.925781 233.746094 2542.925781 233.746094 L 2542.925781 315.679688 Z M 2318.398438 266.882812 C 2318.398438 266.882812 2318.84375 279.191406 2301.578125 279.191406 C 2301.578125 279.191406 2280.339844 281.742188 2280.722656 267.328125 L 2281.613281 151.425781 C 2281.613281 151.425781 2280.722656 131.429688 2292.707031 131.429688 L 2309.082031 131.429688 C 2309.082031 131.429688 2318.367188 133.984375 2318.367188 147.152344 L 2318.367188 266.882812 Z M 2386.59375 291.058594 C 2386.59375 291.058594 2402.078125 272.816406 2403.890625 233.746094 L 2403.890625 176.433594 C 2403.890625 176.433594 2401.695312 133.121094 2387.070312 118.734375 C 2387.070312 118.734375 2372.445312 96.632812 2332.191406 93.222656 L 2273.277344 93.222656 C 2273.277344 93.222656 2232.519531 96.632812 2218.785156 118.289062 C 2218.785156 118.289062 2206.355469 126.359375 2201.492188 162.847656 L 2201.492188 246.917969 C 2201.492188 246.917969 2207.277344 282.160156 2225.429688 296.160156 C 2225.429688 296.160156 2237.382812 312.296875 2271.023438 317.816406 C 2271.023438 317.816406 2313.085938 322.058594 2338.777344 316.957031 C 2338.777344 316.957031 2367.105469 314.851562 2386.59375 291.058594 M 2068.179688 135.703125 L 2088.113281 135.289062 C 2104.105469 135.289062 2104.105469 150.980469 2104.105469 150.980469 L 2104.105469 178.152344 C 2097.429688 204.851562 2068.210938 197.671875 2068.210938 197.671875 Z M 2065.984375 239.261719 L 2127.09375 239.261719 C 2127.09375 239.261719 2182.921875 235.050781 2182.921875 174.328125 L 2182.921875 150.980469 C 2182.921875 150.980469 2186.925781 101.292969 2131.097656 94.5 L 2127.125 93.667969 L 1984.46875 93.667969 L 1984.46875 316.125 L 2065.957031 316.125 L 2065.957031 239.292969 Z M 1948.632812 269.847656 L 1868.925781 269.847656 L 1868.925781 224.847656 L 1944.214844 224.847656 L 1944.214844 182.839844 L 1868.925781 182.839844 L 1868.925781 139.945312 L 1948.632812 139.945312 L 1948.632812 93.667969 L 1787.46875 93.667969 L 1787.46875 316.125 L 1948.632812 316.125 Z M 1755.996094 269.847656 L 1674.121094 269.847656 L 1674.121094 224.847656 L 1751.605469 224.847656 L 1751.605469 182.839844 L 1674.09375 182.839844 L 1674.09375 139.945312 L 1755.996094 139.945312 L 1755.996094 93.667969 L 1592.636719 93.667969 L 1592.636719 316.125 L 1755.996094 316.125 Z M 1444.789062 131.667969 L 1466.445312 131.667969 C 1483.738281 131.667969 1480.652344 157.121094 1480.652344 157.121094 C 1480.652344 185.15625 1466.027344 180.882812 1466.027344 180.882812 L 1444.789062 180.882812 Z M 1443.8125 220.605469 L 1464.664062 220.605469 C 1464.664062 220.605469 1481.957031 220.605469 1481.957031 235.4375 L 1481.957031 316.125 L 1561.222656 316.125 L 1561.222656 232.085938 C 1561.222656 232.085938 1548.347656 204.882812 1516.488281 204.882812 L 1516.488281 194.707031 C 1516.488281 194.707031 1560.332031 188.359375 1560.332031 156.054688 L 1560.332031 129.355469 C 1560.332031 129.355469 1555.882812 101.738281 1521.324219 94.113281 L 1362.414062 94.113281 L 1362.414062 316.125 L 1443.839844 316.125 Z M 1237.914062 201.5 L 1335.328125 201.5 L 1335.328125 149.289062 L 1237.914062 149.289062 L 1237.914062 95.328125 L 1339.75 95.328125 L 1339.75 36.355469 L 1134.296875 36.355469 L 1134.296875 316.097656 L 1237.914062 316.097656 Z M 4913.796875 93.667969 L 4916.46875 208.292969 L 4907.597656 208.292969 L 4858.445312 93.667969 L 4761.441406 93.667969 L 4761.441406 315.679688 L 4831.421875 315.679688 L 4831.421875 203.191406 L 4837.679688 203.191406 L 4877.015625 316.125 L 4986 316.125 L 4986 93.667969 Z M 4913.796875 93.667969 "/>
</g>
</svg>
