<?xml version="1.0" encoding="UTF-8"?>
<svg xmlns="http://www.w3.org/2000/svg" xmlns:xlink="http://www.w3.org/1999/xlink" width="1280px" height="720px" viewBox="0 0 4004 720" version="1.1">
<g id="surface1">
<path style=" stroke:none;fill-rule:nonzero;fill:rgb(10.980392%,16.078432%,32.941177%);fill-opacity:1;" d="M 990.3125 715.355469 C 874.03125 715.355469 779.425781 620.734375 779.425781 504.429688 L 779.425781 0 L 907.761719 0 L 907.761719 504.429688 C 907.761719 549.953125 944.785156 586.996094 990.3125 586.996094 C 1035.835938 586.996094 1072.867188 549.953125 1072.867188 504.429688 L 1072.867188 0 L 1201.207031 0 L 1201.207031 504.429688 C 1201.207031 620.734375 1106.601562 715.355469 990.3125 715.355469 "/>
<path style=" stroke:none;fill-rule:nonzero;fill:rgb(14.509805%,62.7451%,67.058825%);fill-opacity:1;" d="M 2255.707031 0 C 2371.988281 0 2466.59375 94.628906 2466.59375 210.933594 L 2466.59375 715.355469 L 2338.253906 715.355469 L 2338.253906 210.933594 C 2338.253906 165.402344 2301.230469 128.367188 2255.707031 128.367188 C 2210.183594 128.367188 2173.140625 165.402344 2173.140625 210.933594 L 2173.140625 715.355469 L 2044.804688 715.355469 L 2044.804688 210.933594 C 2044.804688 94.628906 2139.410156 0 2255.707031 0 "/>
<path style=" stroke:none;fill-rule:nonzero;fill:rgb(10.980392%,16.078432%,32.941177%);fill-opacity:1;" d="M 715.253906 210.9375 C 715.253906 94.632812 620.644531 0.00390625 504.347656 0.00390625 L 0 0.00390625 L 0 128.359375 L 504.347656 128.359375 C 549.871094 128.359375 586.914062 165.40625 586.914062 210.9375 C 586.914062 256.46875 549.871094 293.496094 504.347656 293.496094 L 0 293.496094 L 0 421.863281 L 504.347656 421.863281 C 549.871094 421.863281 586.914062 458.910156 586.914062 504.433594 C 586.914062 549.972656 549.871094 587 504.347656 587 L 0 587 L 0 715.359375 L 504.347656 715.359375 C 620.644531 715.359375 715.253906 620.738281 715.253906 504.433594 C 715.253906 447.40625 692.414062 395.6875 655.527344 357.679688 C 692.414062 319.683594 715.253906 267.953125 715.253906 210.9375 "/>
<path style=" stroke:none;fill-rule:nonzero;fill:rgb(14.509805%,62.7451%,67.058825%);fill-opacity:1;" d="M 1769.746094 0 C 1712.726562 0 1661.007812 22.84375 1623.007812 59.742188 C 1585.015625 22.84375 1533.292969 0 1476.285156 0 C 1359.988281 0 1265.378906 94.628906 1265.378906 210.933594 L 1265.378906 715.355469 L 1393.726562 715.355469 L 1393.726562 210.933594 C 1393.726562 165.402344 1430.761719 128.367188 1476.285156 128.367188 C 1521.808594 128.367188 1558.832031 165.402344 1558.832031 210.933594 L 1558.832031 715.355469 L 1687.175781 715.355469 L 1687.175781 210.933594 C 1687.175781 165.402344 1724.214844 128.367188 1769.742188 128.367188 C 1815.265625 128.367188 1852.289062 165.402344 1852.289062 210.933594 L 1852.289062 715.355469 L 1980.628906 715.355469 L 1980.628906 210.933594 C 1980.632812 94.628906 1886.027344 0 1769.746094 0 "/>
<path style=" stroke:none;fill-rule:nonzero;fill:rgb(10.980392%,16.078432%,32.941177%);fill-opacity:1;" d="M 2675.679688 413.804688 C 2681.527344 413.804688 2686.753906 412.835938 2691.347656 410.902344 C 2695.949219 408.964844 2699.839844 406.1875 2703.027344 402.578125 C 2706.207031 398.96875 2708.632812 394.5625 2710.3125 389.351562 C 2711.992188 384.15625 2712.824219 378.242188 2712.824219 371.625 L 2712.824219 260.292969 L 2756.421875 260.292969 L 2756.421875 371.625 C 2756.421875 383.144531 2754.550781 393.714844 2750.808594 403.347656 C 2747.078125 412.984375 2741.722656 421.289062 2734.753906 428.257812 C 2727.789062 435.21875 2719.320312 440.636719 2709.34375 444.5 C 2699.367188 448.367188 2688.152344 450.3125 2675.679688 450.3125 C 2663.125 450.3125 2651.855469 448.367188 2641.886719 444.5 C 2631.914062 440.636719 2623.445312 435.21875 2616.476562 428.257812 C 2609.511719 421.289062 2604.179688 412.984375 2600.484375 403.347656 C 2596.785156 393.714844 2594.941406 383.144531 2594.941406 371.625 L 2594.941406 260.292969 L 2638.539062 260.292969 L 2638.539062 371.488281 C 2638.539062 378.113281 2639.378906 384.019531 2641.046875 389.230469 C 2642.71875 394.425781 2645.152344 398.867188 2648.339844 402.519531 C 2651.519531 406.167969 2655.402344 408.964844 2660.003906 410.902344 C 2664.609375 412.835938 2669.835938 413.804688 2675.679688 413.804688 "/>
<path style=" stroke:none;fill-rule:nonzero;fill:rgb(10.980392%,16.078432%,32.941177%);fill-opacity:1;" d="M 2812.527344 260.550781 C 2813.8125 260.71875 2814.96875 261.054688 2816.007812 261.519531 C 2817.035156 262 2818.027344 262.660156 2818.972656 263.515625 C 2819.925781 264.382812 2820.996094 265.539062 2822.195312 267.003906 L 2911.453125 379.882812 C 2911.109375 376.265625 2910.855469 372.769531 2910.679688 369.355469 C 2910.511719 365.972656 2910.417969 362.765625 2910.417969 359.75 L 2910.417969 260.292969 L 2948.863281 260.292969 L 2948.863281 448.238281 L 2926.160156 448.238281 C 2922.808594 448.238281 2919.972656 447.722656 2917.640625 446.695312 C 2915.324219 445.667969 2913.082031 443.78125 2910.9375 441.023438 L 2822.332031 329.054688 C 2822.589844 332.320312 2822.792969 335.515625 2822.976562 338.664062 C 2823.144531 341.800781 2823.238281 344.75 2823.238281 347.5 L 2823.238281 448.238281 L 2784.792969 448.238281 L 2784.792969 260.292969 L 2807.753906 260.292969 C 2809.648438 260.292969 2811.242188 260.390625 2812.527344 260.550781 "/>
<path style=" stroke:none;fill-rule:nonzero;fill:rgb(10.980392%,16.078432%,32.941177%);fill-opacity:1;" d="M 3116.28125 260.289062 L 3116.28125 294.867188 L 3063.394531 294.867188 L 3063.394531 448.246094 L 3019.796875 448.246094 L 3019.796875 294.867188 L 2966.917969 294.867188 L 2966.917969 260.289062 Z M 3116.28125 260.289062 "/>
<path style=" stroke:none;fill-rule:nonzero;fill:rgb(10.980392%,16.078432%,32.941177%);fill-opacity:1;" d="M 3212.496094 413.804688 C 3218.339844 413.804688 3223.566406 412.835938 3228.167969 410.902344 C 3232.769531 408.964844 3236.652344 406.1875 3239.84375 402.578125 C 3243.019531 398.96875 3245.457031 394.5625 3247.125 389.351562 C 3248.804688 384.15625 3249.644531 378.242188 3249.644531 371.625 L 3249.644531 260.292969 L 3293.242188 260.292969 L 3293.242188 371.625 C 3293.242188 383.144531 3291.363281 393.714844 3287.628906 403.347656 C 3283.894531 412.984375 3278.535156 421.289062 3271.570312 428.257812 C 3264.609375 435.21875 3256.132812 440.636719 3246.167969 444.5 C 3236.183594 448.367188 3224.964844 450.3125 3212.496094 450.3125 C 3199.949219 450.3125 3188.679688 448.367188 3178.703125 444.5 C 3168.734375 440.636719 3160.257812 435.21875 3153.300781 428.257812 C 3146.332031 421.289062 3140.992188 412.984375 3137.300781 403.347656 C 3133.597656 393.714844 3131.753906 383.144531 3131.753906 371.625 L 3131.753906 260.292969 L 3175.359375 260.292969 L 3175.359375 371.488281 C 3175.359375 378.113281 3176.191406 384.019531 3177.863281 389.230469 C 3179.542969 394.425781 3181.96875 398.867188 3185.15625 402.519531 C 3188.335938 406.167969 3192.226562 408.964844 3196.828125 410.902344 C 3201.421875 412.835938 3206.648438 413.804688 3212.496094 413.804688 "/>
<path style=" stroke:none;fill-rule:nonzero;fill:rgb(10.980392%,16.078432%,32.941177%);fill-opacity:1;" d="M 3365.210938 336.402344 L 3372.167969 336.402344 C 3378.621094 336.402344 3383.265625 334.390625 3386.101562 330.34375 L 3428.414062 268.9375 C 3430.730469 265.578125 3433.375 263.304688 3436.332031 262.097656 C 3439.308594 260.898438 3442.941406 260.289062 3447.234375 260.289062 L 3485.15625 260.289062 L 3429.441406 336.277344 C 3427.464844 339.027344 3425.390625 341.308594 3423.246094 343.105469 C 3421.097656 344.914062 3418.902344 346.425781 3416.671875 347.632812 C 3419.9375 348.824219 3422.929688 350.496094 3425.636719 352.597656 C 3428.347656 354.703125 3430.8125 357.515625 3433.050781 361.039062 L 3489.804688 448.246094 L 3450.851562 448.246094 C 3448.359375 448.246094 3446.230469 448.074219 3444.464844 447.722656 C 3442.699219 447.386719 3441.175781 446.875 3439.882812 446.179688 C 3438.597656 445.5 3437.480469 444.664062 3436.53125 443.667969 C 3435.589844 442.679688 3434.6875 441.542969 3433.824219 440.246094 L 3391.261719 374.847656 C 3389.710938 372.441406 3387.757812 370.742188 3385.390625 369.757812 C 3383.027344 368.761719 3379.832031 368.265625 3375.777344 368.265625 L 3365.210938 368.265625 L 3365.210938 448.246094 L 3321.613281 448.246094 L 3321.613281 260.289062 L 3365.210938 260.289062 Z M 3365.210938 336.402344 "/>
<path style=" stroke:none;fill-rule:nonzero;fill:rgb(10.980392%,16.078432%,32.941177%);fill-opacity:1;" d="M 2594.941406 715.359375 L 2638.796875 715.359375 L 2638.796875 527.402344 L 2594.941406 527.402344 Z M 2594.941406 715.359375 "/>
<path style=" stroke:none;fill-rule:nonzero;fill:rgb(10.980392%,16.078432%,32.941177%);fill-opacity:1;" d="M 2701.355469 527.652344 C 2702.640625 527.824219 2703.796875 528.152344 2704.832031 528.625 C 2705.859375 529.105469 2706.847656 529.761719 2707.796875 530.628906 C 2708.75 531.484375 2709.820312 532.652344 2711.019531 534.109375 L 2800.28125 646.984375 C 2799.925781 643.367188 2799.667969 639.871094 2799.5 636.46875 C 2799.328125 633.074219 2799.242188 629.867188 2799.242188 626.859375 L 2799.242188 527.40625 L 2837.679688 527.40625 L 2837.679688 715.351562 L 2814.976562 715.351562 C 2811.632812 715.351562 2808.796875 714.835938 2806.46875 713.808594 C 2804.152344 712.78125 2801.90625 710.882812 2799.757812 708.125 L 2711.15625 596.15625 C 2711.414062 599.421875 2711.621094 602.628906 2711.800781 605.765625 C 2711.972656 608.902344 2712.058594 611.851562 2712.058594 614.601562 L 2712.058594 715.351562 L 2673.621094 715.351562 L 2673.621094 527.40625 L 2696.582031 527.40625 C 2698.476562 527.40625 2700.058594 527.476562 2701.355469 527.652344 "/>
<path style=" stroke:none;fill-rule:nonzero;fill:rgb(10.980392%,16.078432%,32.941177%);fill-opacity:1;" d="M 2994.523438 621.3125 C 2994.523438 612.019531 2993.324219 603.636719 2990.914062 596.15625 C 2988.507812 588.671875 2985.042969 582.335938 2980.527344 577.125 C 2976.011719 571.921875 2970.484375 567.929688 2963.953125 565.125 C 2957.414062 562.332031 2949.976562 560.945312 2941.644531 560.945312 L 2912.496094 560.945312 L 2912.496094 681.816406 L 2941.644531 681.816406 C 2949.976562 681.816406 2957.414062 680.421875 2963.953125 677.617188 C 2970.484375 674.824219 2976.011719 670.828125 2980.527344 665.617188 C 2985.042969 660.414062 2988.507812 654.070312 2990.914062 646.597656 C 2993.324219 639.113281 2994.523438 630.6875 2994.523438 621.3125 M 3039.148438 621.3125 C 3039.148438 634.898438 3036.808594 647.4375 3032.121094 658.914062 C 3027.433594 670.402344 3020.832031 680.335938 3012.324219 688.710938 C 3003.8125 697.101562 2993.5625 703.632812 2981.566406 708.320312 C 2969.566406 713.007812 2956.265625 715.359375 2941.644531 715.359375 L 2868.644531 715.359375 L 2868.644531 527.402344 L 2941.644531 527.402344 C 2956.265625 527.402344 2969.566406 529.761719 2981.566406 534.492188 C 2993.5625 539.222656 3003.8125 545.761719 3012.324219 554.101562 C 3020.832031 562.453125 3027.433594 572.351562 3032.121094 583.835938 C 3036.808594 595.324219 3039.148438 607.8125 3039.148438 621.3125 "/>
<path style=" stroke:none;fill-rule:nonzero;fill:rgb(10.980392%,16.078432%,32.941177%);fill-opacity:1;" d="M 3200.886719 621.3125 C 3200.886719 612.019531 3199.6875 603.664062 3197.277344 596.222656 C 3194.871094 588.785156 3191.40625 582.484375 3186.898438 577.316406 C 3182.375 572.164062 3176.855469 568.203125 3170.324219 565.453125 C 3163.785156 562.710938 3156.347656 561.328125 3148.007812 561.328125 C 3139.582031 561.328125 3132.074219 562.710938 3125.503906 565.453125 C 3118.929688 568.203125 3113.375 572.164062 3108.859375 577.316406 C 3104.351562 582.484375 3100.878906 588.785156 3098.480469 596.222656 C 3096.074219 603.664062 3094.863281 612.019531 3094.863281 621.3125 C 3094.863281 630.6875 3096.070312 639.089844 3098.480469 646.527344 C 3100.882812 653.976562 3104.351562 660.269531 3108.859375 665.421875 C 3113.375 670.589844 3118.929688 674.523438 3125.503906 677.230469 C 3132.074219 679.949219 3139.582031 681.292969 3148.007812 681.292969 C 3156.347656 681.292969 3163.785156 679.949219 3170.324219 677.230469 C 3176.855469 674.523438 3182.375 670.589844 3186.898438 665.421875 C 3191.40625 660.269531 3194.871094 653.976562 3197.277344 646.527344 C 3199.683594 639.089844 3200.886719 630.6875 3200.886719 621.3125 M 3245.519531 621.3125 C 3245.519531 634.898438 3243.171875 647.539062 3238.492188 659.242188 C 3233.796875 670.933594 3227.207031 681.105469 3218.695312 689.746094 C 3210.175781 698.386719 3199.925781 705.15625 3187.929688 710.058594 C 3175.929688 714.972656 3162.628906 717.421875 3148.007812 717.421875 C 3133.386719 717.421875 3120.058594 714.972656 3108.027344 710.058594 C 3095.988281 705.15625 3085.683594 698.386719 3077.140625 689.746094 C 3068.578125 681.105469 3061.953125 670.933594 3057.273438 659.242188 C 3052.578125 647.539062 3050.238281 634.898438 3050.238281 621.3125 C 3050.238281 607.726562 3052.578125 595.074219 3057.273438 583.382812 C 3061.953125 571.691406 3068.578125 561.542969 3077.140625 552.9375 C 3085.683594 544.347656 3095.988281 537.585938 3108.027344 532.683594 C 3120.058594 527.789062 3133.386719 525.335938 3148.007812 525.335938 C 3162.628906 525.335938 3175.929688 527.816406 3187.929688 532.753906 C 3199.925781 537.699219 3210.175781 544.46875 3218.695312 553.074219 C 3227.207031 561.671875 3233.796875 571.820312 3238.492188 583.511719 C 3243.171875 595.203125 3245.519531 607.8125 3245.519531 621.3125 "/>
<path style=" stroke:none;fill-rule:nonzero;fill:rgb(10.980392%,16.078432%,32.941177%);fill-opacity:1;" d="M 3294.136719 527.652344 C 3295.433594 527.824219 3296.589844 528.152344 3297.625 528.625 C 3298.652344 529.105469 3299.640625 529.761719 3300.582031 530.628906 C 3301.535156 531.484375 3302.605469 532.652344 3303.804688 534.109375 L 3393.0625 646.984375 C 3392.722656 643.367188 3392.464844 639.871094 3392.289062 636.46875 C 3392.121094 633.074219 3392.027344 629.867188 3392.027344 626.859375 L 3392.027344 527.40625 L 3430.472656 527.40625 L 3430.472656 715.351562 L 3407.769531 715.351562 C 3404.417969 715.351562 3401.582031 714.835938 3399.261719 713.808594 C 3396.9375 712.78125 3394.699219 710.882812 3392.550781 708.125 L 3303.941406 596.15625 C 3304.199219 599.421875 3304.402344 602.628906 3304.582031 605.765625 C 3304.753906 608.902344 3304.847656 611.851562 3304.847656 614.601562 L 3304.847656 715.351562 L 3266.402344 715.351562 L 3266.402344 527.40625 L 3289.363281 527.40625 C 3291.257812 527.40625 3292.851562 527.476562 3294.136719 527.652344 "/>
<path style=" stroke:none;fill-rule:nonzero;fill:rgb(10.980392%,16.078432%,32.941177%);fill-opacity:1;" d="M 3582.410156 527.402344 L 3582.410156 560.941406 L 3505.277344 560.941406 L 3505.277344 604.792969 L 3564.355469 604.792969 L 3564.355469 637.046875 L 3505.277344 637.046875 L 3505.277344 681.816406 L 3582.410156 681.816406 L 3582.410156 715.355469 L 3461.425781 715.355469 L 3461.425781 527.402344 Z M 3582.410156 527.402344 "/>
<path style=" stroke:none;fill-rule:nonzero;fill:rgb(10.980392%,16.078432%,32.941177%);fill-opacity:1;" d="M 3711.90625 565.582031 C 3710.621094 567.644531 3709.257812 569.199219 3707.84375 570.226562 C 3706.421875 571.253906 3704.59375 571.777344 3702.359375 571.777344 C 3700.378906 571.777344 3698.253906 571.152344 3695.972656 569.902344 C 3693.695312 568.648438 3691.125 567.261719 3688.234375 565.71875 C 3685.355469 564.164062 3682.074219 562.769531 3678.371094 561.519531 C 3674.675781 560.273438 3670.460938 559.65625 3665.730469 559.65625 C 3657.5625 559.65625 3651.484375 561.394531 3647.484375 564.875 C 3643.480469 568.355469 3641.476562 573.0625 3641.476562 578.992188 C 3641.476562 582.789062 3642.683594 585.917969 3645.09375 588.421875 C 3647.5 590.910156 3650.664062 593.058594 3654.570312 594.867188 C 3658.488281 596.675781 3662.960938 598.324219 3667.984375 599.832031 C 3673.023438 601.339844 3678.15625 603.019531 3683.402344 604.863281 C 3688.644531 606.714844 3693.78125 608.890625 3698.8125 611.375 C 3703.839844 613.871094 3708.324219 617.050781 3712.230469 620.917969 C 3716.140625 624.792969 3719.300781 629.503906 3721.710938 635.050781 C 3724.117188 640.597656 3725.316406 647.28125 3725.316406 655.097656 C 3725.316406 663.800781 3723.820312 671.917969 3720.800781 679.492188 C 3717.792969 687.0625 3713.429688 693.652344 3707.714844 699.292969 C 3702 704.925781 3694.945312 709.347656 3686.5625 712.578125 C 3678.171875 715.800781 3668.660156 717.421875 3657.992188 717.421875 C 3652.136719 717.421875 3646.191406 716.8125 3640.128906 715.613281 C 3634.070312 714.398438 3628.191406 712.707031 3622.527344 710.515625 C 3616.855469 708.320312 3611.515625 705.722656 3606.535156 702.707031 C 3601.546875 699.699219 3597.203125 696.347656 3593.507812 692.644531 L 3606.398438 672.269531 C 3607.339844 670.726562 3608.675781 669.476562 3610.402344 668.53125 C 3612.113281 667.570312 3613.964844 667.109375 3615.945312 667.109375 C 3618.523438 667.109375 3621.128906 667.921875 3623.746094 669.558594 C 3626.375 671.1875 3629.332031 672.988281 3632.648438 674.976562 C 3635.957031 676.945312 3639.761719 678.757812 3644.0625 680.394531 C 3648.359375 682.023438 3653.429688 682.84375 3659.285156 682.84375 C 3667.1875 682.84375 3673.339844 681.105469 3677.726562 677.617188 C 3682.105469 674.136719 3684.300781 668.617188 3684.300781 661.039062 C 3684.300781 656.652344 3683.101562 653.085938 3680.691406 650.332031 C 3678.285156 647.582031 3675.121094 645.300781 3671.214844 643.503906 C 3667.296875 641.695312 3662.851562 640.097656 3657.863281 638.726562 C 3652.875 637.347656 3647.757812 635.824219 3642.511719 634.152344 C 3637.277344 632.46875 3632.152344 630.40625 3627.164062 627.953125 C 3622.175781 625.503906 3617.726562 622.269531 3613.8125 618.269531 C 3609.902344 614.28125 3606.742188 609.292969 3604.332031 603.3125 C 3601.925781 597.335938 3600.726562 589.964844 3600.726562 581.1875 C 3600.726562 574.140625 3602.136719 567.257812 3604.976562 560.546875 C 3607.820312 553.84375 3611.984375 547.871094 3617.496094 542.617188 C 3622.988281 537.378906 3629.742188 533.1875 3637.746094 530.042969 C 3645.734375 526.90625 3654.898438 525.335938 3665.214844 525.335938 C 3670.976562 525.335938 3676.578125 525.78125 3682.046875 526.691406 C 3687.507812 527.589844 3692.683594 528.925781 3697.59375 530.683594 C 3702.488281 532.449219 3707.074219 534.558594 3711.332031 537 C 3715.582031 539.453125 3719.386719 542.230469 3722.746094 545.332031 Z M 3711.90625 565.582031 "/>
<path style=" stroke:none;fill-rule:nonzero;fill:rgb(10.980392%,16.078432%,32.941177%);fill-opacity:1;" d="M 3750.855469 715.359375 L 3794.710938 715.359375 L 3794.710938 527.402344 L 3750.855469 527.402344 Z M 3750.855469 715.359375 "/>
<path style=" stroke:none;fill-rule:nonzero;fill:rgb(10.980392%,16.078432%,32.941177%);fill-opacity:1;" d="M 3883.703125 643.5 L 3935.039062 643.5 L 3917.761719 592.03125 C 3916.636719 588.757812 3915.328125 584.914062 3913.828125 580.476562 C 3912.316406 576.054688 3910.835938 571.253906 3909.378906 566.101562 C 3908 571.347656 3906.578125 576.207031 3905.121094 580.671875 C 3903.65625 585.148438 3902.273438 589.023438 3900.988281 592.289062 Z M 4004.429688 715.355469 L 3970.640625 715.355469 C 3966.851562 715.355469 3963.738281 714.464844 3961.289062 712.707031 C 3958.835938 710.941406 3957.132812 708.6875 3956.1875 705.925781 L 3945.109375 673.175781 L 3873.640625 673.175781 L 3862.550781 705.925781 C 3861.695312 708.335938 3860.015625 710.511719 3857.519531 712.449219 C 3855.027344 714.386719 3851.976562 715.355469 3848.367188 715.355469 L 3814.316406 715.355469 L 3887.0625 527.402344 L 3931.6875 527.402344 Z M 4004.429688 715.355469 "/>
</g>
</svg>
