<?xml version="1.0" encoding="UTF-8"?>
<svg xmlns="http://www.w3.org/2000/svg" xmlns:xlink="http://www.w3.org/1999/xlink" width="1280px" height="720px" viewBox="0 0 1982 720" version="1.1">
<g id="surface1">
<path style=" stroke:none;fill-rule:nonzero;fill:rgb(93.333334%,12.941177%,12.941177%);fill-opacity:1;" d="M 0.886719 7.082031 C 0.222656 8.636719 0 168.617188 0.222656 362.773438 L 0.886719 715.582031 L 1982 715.582031 L 1982 5.527344 L 991.886719 4.863281 C 200.996094 4.417969 1.554688 4.863281 0.886719 7.082031 Z M 849.460938 80.75 C 877.414062 89.402344 884.511719 91.84375 896.9375 98.5 C 905.589844 102.9375 912.910156 108.929688 918.675781 116.472656 C 923.335938 122.464844 927.996094 128.679688 929.105469 130.007812 C 930.214844 131.339844 937.976562 141.105469 946.1875 151.976562 C 954.617188 162.628906 967.261719 178.605469 974.140625 187.257812 C 993.441406 211 997.433594 217.878906 1001.203125 232.523438 C 1008.96875 262.257812 1003.867188 302.195312 987.671875 339.253906 C 969.480469 380.523438 926.886719 420.023438 881.628906 437.550781 C 845.246094 451.753906 846.796875 451.53125 801.761719 451.53125 C 757.394531 451.53125 756.726562 451.53125 721.230469 438.4375 C 693.945312 428.230469 663.996094 407.597656 644.472656 385.40625 C 632.714844 371.648438 613.855469 342.359375 610.972656 332.375 C 610.085938 329.488281 608.53125 326.160156 607.644531 325.050781 C 600.324219 315.734375 597.21875 244.726562 602.984375 219.652344 C 606.535156 203.898438 620.734375 174.164062 631.160156 160.628906 C 635.597656 154.859375 640.476562 148.648438 641.808594 146.652344 C 648.464844 137.777344 669.984375 118.691406 680.410156 112.480469 C 686.84375 108.484375 695.941406 103.160156 700.378906 100.496094 C 715.464844 91.179688 744.082031 81.636719 768.484375 77.644531 C 786.234375 74.535156 835.484375 76.535156 849.460938 80.75 Z M 1286.28125 83.191406 C 1288.722656 85.632812 1288.941406 90.511719 1286.726562 112.480469 C 1285.171875 126.902344 1282.507812 146.429688 1280.734375 156.191406 C 1278.960938 165.734375 1277.628906 178.382812 1277.628906 184.152344 C 1277.628906 202.125 1274.523438 203.898438 1244.351562 204.566406 L 1218.839844 205.230469 L 1217.507812 217.433594 C 1216.621094 224.089844 1214.847656 238.070312 1213.515625 248.5 C 1208.855469 282.003906 1206.859375 299.976562 1202.199219 341.695312 C 1199.761719 364.328125 1196.652344 388.511719 1195.542969 395.390625 C 1194.214844 402.492188 1192.660156 414.917969 1191.773438 423.128906 C 1191.109375 431.558594 1189.554688 439.546875 1188.222656 440.878906 C 1186.671875 443.097656 1170.03125 443.765625 1118.5625 443.765625 L 1050.898438 443.765625 L 1052.007812 430.894531 C 1052.453125 424.015625 1054.671875 405.15625 1056.445312 389.402344 C 1058.441406 373.425781 1061.105469 351.011719 1062.433594 339.476562 C 1066.429688 302.195312 1071.308594 265.585938 1074.859375 245.171875 C 1076.855469 234.078125 1077.964844 220.761719 1077.519531 215.214844 L 1076.855469 205.230469 L 1052.007812 204.566406 L 1027.382812 203.898438 L 1019.839844 195.46875 C 1012.742188 187.035156 1007.859375 181.042969 979.90625 145.320312 C 934.429688 87.40625 931.324219 82.96875 934.871094 79.640625 C 935.316406 78.972656 1014.074219 78.972656 1109.46875 79.417969 C 1249.011719 80.082031 1283.839844 80.972656 1286.28125 83.191406 Z M 358.507812 82.523438 C 360.0625 85.410156 361.835938 94.730469 365.828125 124.242188 C 367.160156 133.335938 369.15625 145.320312 370.265625 150.867188 C 371.375 156.414062 373.371094 168.839844 374.703125 178.605469 C 378.472656 205.675781 379.582031 210.777344 381.359375 210.777344 C 382.246094 210.777344 385.351562 204.566406 388.234375 196.796875 C 390.898438 189.253906 396 177.050781 399.328125 169.726562 C 402.433594 162.40625 407.316406 150.867188 409.753906 143.765625 C 412.417969 136.886719 416.410156 126.902344 418.851562 121.578125 C 421.292969 116.472656 425.507812 106.488281 427.945312 99.832031 C 436.378906 78.308594 430.164062 79.863281 508.921875 79.863281 C 567.933594 79.863281 578.582031 80.304688 581.023438 83.191406 C 585.015625 88.070312 581.6875 440.4375 577.695312 443.765625 C 575.921875 445.316406 552.625 445.761719 510.917969 445.539062 L 446.804688 444.875 L 447.027344 414.917969 C 447.027344 398.5 447.691406 368.542969 448.578125 348.351562 C 449.910156 318.839844 449.6875 312.847656 447.46875 317.285156 C 441.035156 330.378906 425.726562 364.328125 425.726562 365.4375 C 425.726562 366.101562 421.070312 376.753906 415.523438 389.179688 C 409.753906 401.382812 403.765625 415.140625 401.769531 419.355469 C 395.335938 434.222656 391.785156 440.4375 388.457031 443.097656 C 383.132812 447.3125 307.484375 447.09375 303.933594 442.875 C 301.714844 440.214844 299.050781 424.460938 292.617188 372.09375 C 291.289062 362.328125 289.292969 350.347656 288.183594 345.464844 C 287.074219 340.363281 285.964844 331.707031 285.964844 326.160156 C 285.742188 320.613281 284.855469 314.179688 283.96875 311.960938 C 282.636719 308.410156 281.527344 309.964844 278.421875 319.28125 C 276.425781 325.71875 273.761719 335.039062 272.652344 340.140625 C 270.210938 351.902344 264.886719 372.535156 260.671875 388.292969 C 258.898438 394.949219 256.015625 404.933594 254.683594 410.480469 C 253.128906 416.027344 250.691406 425.570312 248.914062 431.78125 C 246.695312 440.4375 244.699219 443.542969 240.929688 444.652344 C 232.941406 446.871094 114.253906 445.984375 110.703125 443.765625 C 107.375 441.765625 107.375 441.324219 118.46875 403.824219 C 120.019531 398.277344 125.121094 381.632812 129.339844 366.546875 C 133.773438 351.679688 138.878906 335.039062 140.429688 329.933594 C 142.207031 324.832031 145.089844 314.625 147.308594 307.300781 C 149.304688 299.976562 154.183594 283.558594 158.179688 270.6875 C 162.171875 257.820312 166.609375 243.394531 167.941406 238.515625 C 178.367188 201.015625 180.363281 193.914062 181.917969 191.917969 C 183.027344 190.585938 184.355469 185.261719 185.242188 180.15625 C 186.132812 175.054688 187.683594 170.171875 188.570312 169.507812 C 189.679688 168.839844 190.570312 166.398438 190.570312 164.179688 C 190.570312 161.738281 191.898438 155.527344 193.675781 150.421875 C 195.449219 145.097656 199 133.335938 201.660156 124.242188 C 210.757812 93.839844 214.527344 83.855469 217.414062 81.859375 C 219.1875 80.75 251.132812 79.863281 288.625 79.863281 C 340.539062 79.863281 357.175781 80.527344 358.507812 82.523438 Z M 1449.117188 84.523438 C 1450.671875 87.183594 1450.671875 92.953125 1448.898438 103.382812 C 1447.566406 111.8125 1444.238281 137.554688 1441.796875 160.851562 C 1439.136719 183.929688 1436.25 209.003906 1434.921875 216.324219 C 1432.703125 229.417969 1431.59375 238.734375 1426.046875 287.332031 C 1423.605469 309.742188 1423.605469 312.402344 1427.378906 320.171875 C 1431.59375 329.046875 1440.246094 335.039062 1449.339844 335.039062 C 1463.980469 335.039062 1480.398438 319.0625 1482.839844 301.976562 C 1483.503906 297.539062 1485.058594 288.882812 1486.167969 282.894531 C 1487.5 276.679688 1489.496094 262.699219 1490.605469 251.828125 C 1496.152344 199.019531 1504.800781 131.785156 1508.351562 115.363281 C 1509.460938 109.816406 1510.347656 101.164062 1510.570312 96.28125 C 1510.570312 91.179688 1511.902344 86.074219 1513.453125 84.742188 C 1517.226562 81.636719 1647.671875 80.75 1650.777344 83.855469 C 1652.996094 86.074219 1651 109.152344 1645.898438 144.210938 C 1643.238281 162.847656 1641.238281 178.824219 1634.804688 235.1875 C 1632.367188 256.488281 1629.261719 279.5625 1627.929688 286.222656 C 1626.597656 292.878906 1624.824219 305.96875 1623.714844 315.066406 C 1620.828125 339.917969 1617.722656 351.679688 1610.402344 366.988281 C 1585.554688 417.359375 1535.640625 446.871094 1464.425781 452.863281 C 1421.386719 456.632812 1385.449219 452.417969 1358.160156 440.214844 C 1354.390625 438.4375 1350.394531 437.105469 1349.285156 437.105469 C 1348.175781 437.105469 1341.300781 433.113281 1333.980469 428.453125 C 1314.457031 415.582031 1298.925781 398.5 1290.496094 380.523438 C 1283.175781 365.214844 1283.175781 364.769531 1283.398438 332.816406 C 1283.398438 315.066406 1284.726562 295.539062 1286.058594 289.550781 C 1287.613281 283.335938 1289.832031 270.023438 1290.941406 259.59375 C 1292.050781 249.164062 1294.488281 228.75 1296.265625 214.105469 C 1298.039062 199.460938 1301.144531 174.386719 1302.917969 158.632812 C 1304.917969 142.65625 1307.355469 124.683594 1308.464844 118.691406 C 1309.796875 112.480469 1310.683594 103.160156 1310.683594 97.835938 C 1311.128906 79.195312 1309.351562 79.640625 1382.5625 80.304688 C 1439.355469 80.972656 1447.121094 81.414062 1449.117188 84.523438 Z M 1817.386719 99.832031 C 1817.167969 110.261719 1815.835938 125.128906 1814.726562 133.117188 C 1812.730469 145.542969 1807.847656 183.042969 1798.753906 258.484375 C 1797.644531 268.246094 1795.648438 282.226562 1794.539062 289.550781 C 1793.429688 296.871094 1792.097656 307.300781 1791.875 312.847656 L 1791.210938 322.832031 L 1842.234375 323.941406 C 1870.410156 324.609375 1893.480469 325.496094 1893.480469 325.71875 C 1896.367188 329.710938 1895.480469 336.589844 1889.933594 353.453125 C 1886.160156 364.769531 1882.167969 376.753906 1881.28125 380.523438 C 1870.1875 417.582031 1861.980469 440.878906 1859.316406 443.097656 C 1856.65625 445.316406 1830.699219 445.984375 1747.0625 445.984375 C 1686.273438 445.984375 1636.800781 445.09375 1635.027344 443.984375 C 1631.699219 441.765625 1632.585938 430.007812 1639.464844 389.402344 C 1640.574219 382.078125 1642.570312 366.988281 1643.679688 356.117188 C 1649.449219 302.863281 1654.996094 261.148438 1659.429688 236.296875 C 1660.761719 228.972656 1662.757812 214.992188 1663.644531 205.230469 C 1667.640625 167.953125 1670.300781 145.097656 1673.628906 123.128906 C 1675.40625 110.484375 1676.957031 97.613281 1676.957031 94.285156 C 1676.957031 90.734375 1678.730469 86.074219 1680.730469 83.855469 C 1684.054688 80.082031 1688.714844 79.863281 1751.054688 80.304688 L 1817.832031 80.972656 Z M 1313.347656 507.226562 C 1316.453125 508.777344 1322.664062 514.105469 1327.101562 519.207031 C 1332.425781 524.753906 1335.753906 527.195312 1336.417969 525.421875 C 1337.085938 523.867188 1338.859375 518.542969 1340.414062 513.660156 L 1343.519531 504.785156 L 1422.941406 504.785156 L 1422.941406 516.101562 C 1422.71875 529.859375 1419.390625 534.738281 1409.851562 534.738281 C 1396.316406 534.738281 1395.875 535.847656 1386.335938 593.539062 C 1382.5625 615.730469 1382.5625 615.730469 1365.257812 616.394531 C 1357.050781 616.839844 1349.507812 616.171875 1348.621094 615.285156 C 1347.066406 613.511719 1351.503906 578.894531 1353.945312 575.125 C 1354.390625 574.234375 1355.941406 565.582031 1357.273438 556.042969 C 1359.269531 542.0625 1359.269531 538.066406 1357.050781 536.515625 C 1353.5 534.296875 1339.746094 534.296875 1339.523438 536.292969 C 1339.523438 537.402344 1339.304688 545.613281 1338.859375 554.710938 C 1337.75 586.664062 1316.453125 611.292969 1282.066406 620.167969 C 1269.421875 623.496094 1267.425781 623.496094 1255.886719 620.167969 C 1240.582031 615.730469 1230.597656 608.40625 1222.832031 596.203125 C 1217.953125 588.4375 1217.0625 584.664062 1217.285156 570.6875 C 1217.285156 556.707031 1218.394531 552.710938 1224.605469 541.839844 C 1236.363281 520.980469 1255.445312 506.558594 1275.410156 503.453125 C 1287.835938 501.675781 1305.804688 503.453125 1313.347656 507.226562 Z M 1510.792969 508.335938 C 1519.445312 512.550781 1532.753906 528.75 1532.753906 534.738281 C 1532.753906 538.511719 1539.410156 553.378906 1540.519531 552.046875 C 1540.742188 551.601562 1542.296875 542.949219 1543.625 532.742188 C 1544.957031 522.3125 1547.621094 511.664062 1549.617188 508.554688 C 1552.945312 503.453125 1553.609375 503.230469 1580.007812 504.117188 C 1610.402344 504.785156 1617.28125 507.226562 1625.265625 518.984375 C 1631.257812 527.859375 1631.699219 538.066406 1626.597656 549.605469 C 1622.382812 558.925781 1613.066406 570.242188 1609.515625 570.242188 C 1608.183594 570.242188 1605.742188 571.128906 1603.96875 572.238281 C 1601.527344 573.792969 1602.636719 577.785156 1610.402344 593.097656 C 1615.503906 603.527344 1619.054688 613.066406 1618.167969 614.398438 C 1617.5 615.730469 1609.738281 616.839844 1600.640625 616.839844 C 1582.449219 616.839844 1579.789062 615.285156 1576.015625 601.527344 C 1572.246094 588.882812 1567.140625 589.992188 1564.703125 603.96875 L 1562.707031 615.730469 L 1546.730469 616.394531 L 1530.535156 617.0625 L 1530.535156 609.296875 C 1530.535156 605.078125 1531.425781 599.308594 1532.535156 596.425781 C 1535.863281 587.328125 1537.859375 565.804688 1535.417969 565.804688 C 1534.085938 565.804688 1532.3125 569.132812 1531.644531 572.90625 C 1529.207031 583.777344 1515.671875 600.863281 1503.027344 609.074219 C 1496.816406 613.066406 1485.28125 617.949219 1477.515625 619.945312 C 1464.425781 623.273438 1462.429688 623.273438 1450.671875 619.945312 C 1434.253906 615.285156 1423.605469 606.632812 1416.0625 591.101562 C 1411.183594 580.894531 1410.292969 577.121094 1411.402344 567.800781 C 1415.175781 536.738281 1441.796875 507.890625 1470.636719 503.453125 C 1484.390625 501.457031 1501.253906 503.453125 1510.792969 508.335938 Z M 1750.609375 509.445312 C 1770.578125 522.3125 1777.234375 539.175781 1772.351562 564.472656 C 1769.023438 581.78125 1766.140625 586.882812 1753.050781 599.308594 C 1740.40625 611.515625 1733.527344 615.507812 1716.226562 620.167969 C 1702.027344 623.941406 1692.707031 622.609375 1675.183594 613.953125 C 1667.640625 610.183594 1663.867188 606.1875 1657.65625 595.09375 C 1650.777344 582.667969 1649.890625 579.785156 1650.777344 568.46875 C 1652.554688 544.945312 1671.1875 518.320312 1692.488281 508.777344 C 1710.679688 500.566406 1737.078125 500.789062 1750.609375 509.445312 Z M 1137.199219 506.335938 C 1139.640625 509.445312 1141.636719 519.871094 1144.074219 544.058594 C 1146.074219 561.144531 1147.847656 564.472656 1151.175781 556.042969 C 1156.054688 542.726562 1174.027344 506.78125 1176.464844 505.449219 C 1181.125 502.34375 1203.753906 503.453125 1206.636719 507.003906 C 1208.632812 509.445312 1208.855469 522.535156 1207.304688 562.917969 L 1205.527344 615.730469 L 1174.46875 615.730469 L 1174.691406 593.984375 C 1174.914062 582.222656 1174.246094 572.460938 1173.359375 572.460938 C 1171.808594 572.460938 1166.703125 582.222656 1155.613281 606.1875 L 1150.730469 616.839844 L 1138.972656 616.839844 C 1132.316406 616.839844 1126.328125 615.953125 1125.664062 614.621094 C 1124.996094 613.511719 1123.664062 603.96875 1123 593.539062 C 1121.003906 565.804688 1117.453125 566.25 1109.246094 594.648438 C 1106.363281 603.746094 1103.921875 612.625 1103.476562 613.953125 C 1102.8125 615.953125 1097.488281 616.839844 1086.839844 616.839844 C 1071.976562 616.839844 1071.308594 616.617188 1071.308594 611.515625 C 1071.308594 608.628906 1072.863281 603.304688 1074.636719 599.976562 C 1076.410156 596.425781 1077.964844 591.765625 1077.964844 589.769531 C 1077.964844 587.773438 1078.851562 583.777344 1079.960938 580.894531 C 1081.070312 578.007812 1084.175781 568.6875 1086.839844 560.257812 C 1089.5 551.601562 1092.386719 542.726562 1093.496094 540.285156 C 1094.601562 537.847656 1097.265625 530.746094 1099.261719 524.753906 C 1106.804688 502.121094 1105.03125 503.675781 1121.003906 503.675781 C 1129.65625 503.675781 1135.867188 504.785156 1137.199219 506.335938 Z M 1825.375 506.78125 C 1828.035156 509.886719 1826.261719 524.753906 1820.9375 546.277344 C 1819.828125 550.714844 1817.832031 561.144531 1816.722656 569.578125 C 1813.839844 591.542969 1810.066406 612.84375 1808.734375 615.0625 C 1808.070312 615.953125 1800.527344 616.839844 1792.097656 616.839844 C 1780.5625 616.839844 1776.347656 615.953125 1775.457031 613.511719 C 1774.347656 610.847656 1777.898438 587.773438 1788.769531 527.417969 C 1790.324219 518.097656 1792.984375 508.777344 1794.539062 507.003906 C 1798.308594 502.566406 1821.824219 502.34375 1825.375 506.78125 Z M 1869.746094 506.78125 C 1871.742188 509 1871.742188 513.660156 1869.964844 524.976562 C 1868.636719 533.1875 1867.082031 540.730469 1866.417969 541.617188 C 1865.972656 542.726562 1864.417969 550.273438 1863.089844 558.480469 C 1861.980469 566.691406 1860.425781 576.898438 1859.539062 580.671875 L 1858.429688 587.992188 L 1873.515625 587.992188 C 1893.039062 587.992188 1895.480469 589.546875 1893.480469 600.417969 C 1890.375 618.171875 1893.261719 616.839844 1855.546875 616.839844 C 1836.6875 616.839844 1820.9375 615.953125 1820.273438 614.84375 C 1819.605469 613.734375 1820.9375 601.085938 1823.601562 586.664062 L 1830.035156 548.054688 C 1831.140625 541.394531 1833.140625 532.296875 1834.25 528.082031 C 1835.578125 523.867188 1836.6875 517.875 1836.6875 514.769531 C 1836.6875 511.664062 1837.796875 507.890625 1839.351562 506.335938 C 1843.121094 502.566406 1866.636719 502.789062 1869.746094 506.78125 Z M 1869.746094 506.78125 "/>
<path style=" stroke:none;fill-rule:nonzero;fill:rgb(93.333334%,12.941177%,12.941177%);fill-opacity:1;" d="M 786.675781 203.234375 C 773.585938 207.894531 758.945312 218.988281 752.957031 228.75 C 745.855469 239.847656 740.089844 264.03125 742.085938 274.683594 C 746.523438 299.3125 758.28125 315.953125 778.246094 326.382812 C 792.667969 333.707031 815.738281 333.484375 830.601562 325.941406 C 844.136719 318.839844 859.445312 300.867188 862.992188 287.996094 C 864.324219 282.671875 864.988281 270.464844 864.546875 260.703125 C 863.660156 244.949219 862.769531 241.621094 855.671875 230.527344 C 846.578125 216.324219 838.589844 209.890625 822.171875 203.898438 C 809.082031 199.019531 798.65625 198.796875 786.675781 203.234375 Z M 1271.859375 534.738281 C 1258.992188 541.175781 1252.558594 550.9375 1251.449219 565.804688 C 1250.339844 580.449219 1255.445312 588.882812 1266.757812 591.101562 C 1284.285156 594.648438 1300.921875 582.222656 1304.25 563.363281 C 1308.6875 538.957031 1292.269531 524.53125 1271.859375 534.738281 Z M 1468.417969 533.628906 C 1449.117188 542.285156 1439.800781 568.246094 1450.671875 583.554688 C 1458.878906 594.871094 1480.84375 593.984375 1491.269531 581.558594 C 1497.703125 573.792969 1502.804688 556.929688 1500.808594 549.382812 C 1497.039062 534.738281 1482.394531 527.417969 1468.417969 533.628906 Z M 1577.125 533.628906 C 1575.792969 535.40625 1574.019531 540.730469 1573.355469 545.613281 C 1572.246094 553.15625 1572.910156 554.488281 1577.125 555.820312 C 1584.222656 558.039062 1593.542969 550.492188 1594.429688 542.0625 C 1594.875 536.957031 1593.984375 534.960938 1589.328125 532.964844 C 1582.007812 529.636719 1580.453125 529.636719 1577.125 533.628906 Z M 1706.90625 533.628906 C 1692.488281 541.394531 1685.832031 552.046875 1685.832031 567.136719 C 1685.832031 581.335938 1689.601562 587.550781 1699.585938 590.210938 C 1717.777344 595.316406 1732.863281 584.886719 1739.074219 563.585938 C 1741.515625 554.710938 1738.1875 541.175781 1732.417969 535.847656 C 1726.652344 530.523438 1714.671875 529.636719 1706.90625 533.628906 Z M 1706.90625 533.628906 "/>
</g>
</svg>
