<?xml version="1.0" encoding="UTF-8"?>
<svg xmlns="http://www.w3.org/2000/svg" xmlns:xlink="http://www.w3.org/1999/xlink" width="1280px" height="720px" viewBox="0 0 3098 720" version="1.1">
<g id="surface1">
<path style=" stroke:none;fill-rule:nonzero;fill:rgb(3.137255%,13.725491%,7.450981%);fill-opacity:1;" d="M 1119.65625 303.171875 L 1216.46875 303.171875 C 1245.933594 303.171875 1266.980469 311.59375 1283.816406 324.21875 C 1300.65625 336.847656 1313.28125 353.6875 1313.28125 374.734375 C 1313.28125 391.570312 1313.28125 416.828125 1304.863281 429.453125 C 1296.445312 442.082031 1283.816406 450.5 1266.980469 458.921875 L 1220.679688 467.339844 L 1178.585938 467.339844 L 1178.585938 551.527344 L 1119.65625 551.527344 Z M 1178.585938 357.894531 L 1178.585938 421.035156 L 1212.261719 421.035156 L 1241.726562 412.617188 C 1250.144531 404.199219 1250.144531 395.78125 1250.144531 387.359375 C 1250.144531 378.941406 1245.933594 370.523438 1237.515625 366.3125 C 1229.097656 357.894531 1220.679688 357.894531 1208.050781 357.894531 Z M 1346.957031 303.171875 L 1502.699219 303.171875 L 1502.699219 353.6875 L 1401.675781 353.6875 L 1401.675781 395.78125 L 1498.488281 395.78125 L 1498.488281 450.5 L 1401.675781 450.5 L 1401.675781 496.804688 L 1502.699219 496.804688 L 1502.699219 551.527344 L 1346.957031 551.527344 Z M 1557.417969 303.171875 L 1658.441406 303.171875 C 1683.695312 303.171875 1700.53125 311.59375 1717.371094 324.21875 C 1729.996094 336.847656 1738.414062 357.894531 1738.414062 374.734375 C 1742.625 391.570312 1738.414062 404.199219 1734.207031 416.828125 C 1725.789062 429.453125 1704.742188 446.292969 1683.695312 450.5 L 1763.671875 551.527344 L 1692.113281 551.527344 L 1620.558594 450.5 L 1612.136719 450.5 L 1612.136719 551.527344 L 1557.417969 551.527344 Z M 1612.136719 353.6875 L 1612.136719 416.828125 L 1633.183594 416.828125 C 1662.648438 416.828125 1679.488281 399.988281 1679.488281 378.941406 C 1679.488281 353.6875 1654.230469 353.6875 1637.394531 353.6875 Z M 1763.671875 303.171875 L 1953.085938 303.171875 L 1953.085938 357.894531 L 1889.949219 357.894531 L 1889.949219 551.527344 L 1826.808594 551.527344 L 1826.808594 357.894531 L 1763.671875 357.894531 Z M 2024.644531 303.171875 L 2083.574219 303.171875 L 2167.757812 551.527344 L 2104.621094 551.527344 L 2091.992188 505.222656 L 2016.226562 505.222656 L 1999.386719 551.527344 L 1940.460938 551.527344 Z M 2054.109375 383.152344 L 2024.644531 458.921875 L 2075.15625 458.921875 Z M 2226.6875 303.171875 L 2285.617188 303.171875 L 2327.710938 442.082031 L 2378.21875 303.171875 L 2437.148438 303.171875 L 2466.613281 551.527344 L 2411.894531 551.527344 L 2395.058594 412.617188 L 2340.335938 551.527344 L 2319.289062 551.527344 L 2264.570312 408.40625 L 2243.523438 551.527344 L 2188.804688 551.527344 Z M 2504.496094 303.171875 L 2563.425781 303.171875 L 2563.425781 551.527344 L 2504.496094 551.527344 Z M 2782.308594 307.382812 L 2837.027344 307.382812 L 2837.027344 551.527344 L 2778.097656 551.527344 L 2672.867188 404.199219 L 2672.867188 551.527344 L 2618.148438 551.527344 L 2618.148438 307.382812 L 2672.867188 307.382812 L 2782.308594 458.921875 Z M 2954.886719 303.171875 L 3018.023438 303.171875 L 3098 551.527344 L 3039.070312 551.527344 L 3022.234375 505.222656 L 2946.46875 505.222656 L 2929.628906 551.527344 L 2870.699219 551.527344 Z M 2984.351562 383.152344 L 2959.09375 458.921875 L 3009.605469 458.921875 Z M 2984.351562 383.152344 "/>
<path style=" stroke:none;fill-rule:nonzero;fill:rgb(0%,42.352942%,72.156864%);fill-opacity:1;" d="M 0 719.902344 L 227.300781 362.105469 C 256.761719 307.382812 286.226562 303.171875 374.621094 303.171875 L 568.246094 303.171875 C 555.621094 315.800781 534.574219 332.640625 521.945312 357.894531 L 324.113281 673.597656 C 303.066406 707.273438 265.183594 719.902344 214.671875 719.902344 Z M 0 719.902344 "/>
<path style=" stroke:none;fill-rule:nonzero;fill:rgb(67.450982%,76.862746%,16.470589%);fill-opacity:1;" d="M 770.289062 303.171875 C 681.898438 303.171875 652.433594 307.382812 618.757812 362.105469 L 496.691406 551.527344 L 723.988281 551.527344 C 761.871094 551.527344 799.753906 534.6875 816.59375 505.222656 L 947.078125 303.171875 Z M 770.289062 303.171875 "/>
<path style=" stroke:none;fill-rule:nonzero;fill:rgb(92.941177%,10.588235%,18.431373%);fill-opacity:1;" d="M 677.6875 0.0976562 C 766.082031 0.0976562 791.335938 4.308594 825.011719 54.820312 L 947.078125 244.242188 L 723.988281 244.242188 C 686.105469 244.242188 648.222656 227.40625 631.386719 202.148438 L 496.691406 0.0976562 Z M 677.6875 0.0976562 "/>
</g>
</svg>
